<svg width="659" height="529" viewBox="0 0 494.25 396.75" xmlns="http://www.w3.org/2000/svg" xmlns:xlink="http://www.w3.org/1999/xlink">
<g id="graph0" class="graph" transform="translate(38.1833381652832, 381.9125061035156) scale(0.8333333730697632,0.8333333730697632)">
<title>finite_state_machine</title>
<polygon fill="white" stroke="transparent" points="-4,4 -4,-444.49 505.46,-444.49 505.46,4 -4,4" data-darkreader-inline-fill="" data-darkreader-inline-stroke="" style="--darkreader-inline-fill:#181a1b; --darkreader-inline-stroke:transparent;"/>
<!-- q1 -->
<g id="node1" class="node">
<title>q1</title>
<ellipse fill="none" stroke="black" cx="127.75" cy="-381.69" rx="20.86" ry="20.86" data-darkreader-inline-stroke="" style="--darkreader-inline-stroke:#e8e6e3;"/>
<ellipse fill="none" stroke="black" cx="127.75" cy="-381.69" rx="24.89" ry="24.89" data-darkreader-inline-stroke="" style="--darkreader-inline-stroke:#e8e6e3;"/>
<text text-anchor="middle" x="127.75" y="-377.49" font-family="Helvetica,Arial,sans-serif" font-size="14.00">q1</text>
</g>
<!-- q5 -->
<g id="node2" class="node">
<title>q5</title>
<ellipse fill="none" stroke="black" cx="352.96" cy="-24.69" rx="20.86" ry="20.86" data-darkreader-inline-stroke="" style="--darkreader-inline-stroke:#e8e6e3;"/>
<ellipse fill="none" stroke="black" cx="352.96" cy="-24.69" rx="24.89" ry="24.89" data-darkreader-inline-stroke="" style="--darkreader-inline-stroke:#e8e6e3;"/>
<text text-anchor="middle" x="352.96" y="-20.49" font-family="Helvetica,Arial,sans-serif" font-size="14.00">q5</text>
</g>
<!-- q7 -->
<g id="node3" class="node">
<title>q7</title>
<ellipse fill="none" stroke="black" cx="241.9" cy="-149.69" rx="20.86" ry="20.86" data-darkreader-inline-stroke="" style="--darkreader-inline-stroke:#e8e6e3;"/>
<ellipse fill="none" stroke="black" cx="241.9" cy="-149.69" rx="24.89" ry="24.89" data-darkreader-inline-stroke="" style="--darkreader-inline-stroke:#e8e6e3;"/>
<text text-anchor="middle" x="241.9" y="-145.49" font-family="Helvetica,Arial,sans-serif" font-size="14.00">q7</text>
</g>
<!-- q9 -->
<g id="node4" class="node">
<title>q9</title>
<ellipse fill="none" stroke="black" cx="127.75" cy="-201.69" rx="20.86" ry="20.86" data-darkreader-inline-stroke="" style="--darkreader-inline-stroke:#e8e6e3;"/>
<ellipse fill="none" stroke="black" cx="127.75" cy="-201.69" rx="24.89" ry="24.89" data-darkreader-inline-stroke="" style="--darkreader-inline-stroke:#e8e6e3;"/>
<text text-anchor="middle" x="127.75" y="-197.49" font-family="Helvetica,Arial,sans-serif" font-size="14.00">q9</text>
</g>
<!-- q10 -->
<g id="node5" class="node">
<title>q10</title>
<ellipse fill="none" stroke="black" cx="471.94" cy="-87.69" rx="25.54" ry="25.54" data-darkreader-inline-stroke="" style="--darkreader-inline-stroke:#e8e6e3;"/>
<ellipse fill="none" stroke="black" cx="471.94" cy="-87.69" rx="29.54" ry="29.54" data-darkreader-inline-stroke="" style="--darkreader-inline-stroke:#e8e6e3;"/>
<text text-anchor="middle" x="471.94" y="-83.49" font-family="Helvetica,Arial,sans-serif" font-size="14.00">q10</text>
</g>
<!-- q0 -->
<g id="node6" class="node">
<title>q0</title>
<ellipse fill="none" stroke="black" cx="20.69" cy="-241.69" rx="20.89" ry="20.89" data-darkreader-inline-stroke="" style="--darkreader-inline-stroke:#e8e6e3;"/>
<text text-anchor="middle" x="20.69" y="-237.49" font-family="Helvetica,Arial,sans-serif" font-size="14.00">q0</text>
</g>
<!-- q0&#45;&gt;q1 -->
<g id="edge2" class="edge">
<title>q0-&gt;q1</title>
<path fill="none" stroke="black" d="M22.93,-262.58C25.92,-305.26 35.21,-400.1 59.39,-419.69 73.12,-430.82 90.54,-420.46 104.22,-407.77" data-darkreader-inline-stroke="" style="--darkreader-inline-stroke:#e8e6e3;"/>
<polygon fill="black" stroke="black" points="106.8,-410.14 111.39,-400.6 101.85,-405.19 106.8,-410.14" data-darkreader-inline-fill="" data-darkreader-inline-stroke="" style="--darkreader-inline-fill:#e8e6e3; --darkreader-inline-stroke:#e8e6e3;"/>
<text text-anchor="middle" x="72.22" y="-427.89" font-family="Helvetica,Arial,sans-serif" font-size="14.00">(</text>
</g>
<!-- q0&#45;&gt;q1 -->
<g id="edge6" class="edge">
<title>q0-&gt;q1</title>
<path fill="none" stroke="black" d="M24.3,-262.12C29.19,-296.88 40.95,-365.18 59.39,-379.69 68.84,-387.14 81.58,-388.92 93.43,-388.39" data-darkreader-inline-stroke="" style="--darkreader-inline-stroke:#e8e6e3;"/>
<polygon fill="black" stroke="black" points="93.89,-391.87 103.51,-387.42 93.22,-384.9 93.89,-391.87" data-darkreader-inline-fill="" data-darkreader-inline-stroke="" style="--darkreader-inline-fill:#e8e6e3; --darkreader-inline-stroke:#e8e6e3;"/>
<text text-anchor="middle" x="72.22" y="-391.89" font-family="Helvetica,Arial,sans-serif" font-size="14.00">[</text>
</g>
<!-- q0&#45;&gt;q1 -->
<g id="edge7" class="edge">
<title>q0-&gt;q1</title>
<path fill="none" stroke="black" d="M25.51,-262.03C30.36,-283.32 40.47,-316.78 59.39,-339.69 64.93,-346.4 81.38,-356.7 96.64,-365.43" data-darkreader-inline-stroke="" style="--darkreader-inline-stroke:#e8e6e3;"/>
<polygon fill="black" stroke="black" points="94.96,-368.5 105.39,-370.34 98.39,-362.39 94.96,-368.5" data-darkreader-inline-fill="" data-darkreader-inline-stroke="" style="--darkreader-inline-fill:#e8e6e3; --darkreader-inline-stroke:#e8e6e3;"/>
<text text-anchor="middle" x="72.22" y="-361.89" font-family="Helvetica,Arial,sans-serif" font-size="14.00">)</text>
</g>
<!-- q0&#45;&gt;q1 -->
<g id="edge8" class="edge">
<title>q0-&gt;q1</title>
<path fill="none" stroke="black" d="M35.03,-257C48.19,-272.31 68.67,-296.73 85.06,-318.89 92.96,-329.58 101.15,-341.67 108.16,-352.37" data-darkreader-inline-stroke="" style="--darkreader-inline-stroke:#e8e6e3;"/>
<polygon fill="black" stroke="black" points="105.36,-354.49 113.74,-360.97 111.24,-350.68 105.36,-354.49" data-darkreader-inline-fill="" data-darkreader-inline-stroke="" style="--darkreader-inline-fill:#e8e6e3; --darkreader-inline-stroke:#e8e6e3;"/>
<text text-anchor="middle" x="72.22" y="-322.89" font-family="Helvetica,Arial,sans-serif" font-size="14.00">]</text>
</g>
<!-- q0&#45;&gt;q9 -->
<g id="edge9" class="edge">
<title>q0-&gt;q9</title>
<path fill="none" stroke="black" d="M38.24,-252.88C51.43,-260.29 70.1,-267.36 85.06,-259.69 96.44,-253.86 105.41,-243.31 112.08,-232.8" data-darkreader-inline-stroke="" style="--darkreader-inline-stroke:#e8e6e3;"/>
<polygon fill="black" stroke="black" points="115.15,-234.48 117.13,-224.08 109.09,-230.97 115.15,-234.48" data-darkreader-inline-fill="" data-darkreader-inline-stroke="" style="--darkreader-inline-fill:#e8e6e3; --darkreader-inline-stroke:#e8e6e3;"/>
<text text-anchor="middle" x="72.22" y="-266.89" font-family="Helvetica,Arial,sans-serif" font-size="14.00">+</text>
</g>
<!-- q0&#45;&gt;q9 -->
<g id="edge10" class="edge">
<title>q0-&gt;q9</title>
<path fill="none" stroke="black" d="M40.68,-235.51C53.34,-231.28 70.3,-225.43 85.06,-219.69 88.39,-218.4 91.85,-216.99 95.29,-215.56" data-darkreader-inline-stroke="" style="--darkreader-inline-stroke:#e8e6e3;"/>
<polygon fill="black" stroke="black" points="96.97,-218.66 104.8,-211.53 94.23,-212.21 96.97,-218.66" data-darkreader-inline-fill="" data-darkreader-inline-stroke="" style="--darkreader-inline-fill:#e8e6e3; --darkreader-inline-stroke:#e8e6e3;"/>
<text text-anchor="middle" x="72.22" y="-231.89" font-family="Helvetica,Arial,sans-serif" font-size="14.00">-</text>
</g>
<!-- q0&#45;&gt;q9 -->
<g id="edge11" class="edge">
<title>q0-&gt;q9</title>
<path fill="none" stroke="black" d="M31.88,-224.21C38.41,-214.81 47.84,-204.11 59.39,-198.89 69.92,-194.13 82.35,-193.46 93.65,-194.44" data-darkreader-inline-stroke="" style="--darkreader-inline-stroke:#e8e6e3;"/>
<polygon fill="black" stroke="black" points="93.26,-197.91 103.62,-195.72 94.15,-190.97 93.26,-197.91" data-darkreader-inline-fill="" data-darkreader-inline-stroke="" style="--darkreader-inline-fill:#e8e6e3; --darkreader-inline-stroke:#e8e6e3;"/>
<text text-anchor="middle" x="72.22" y="-202.89" font-family="Helvetica,Arial,sans-serif" font-size="14.00">/</text>
</g>
<!-- q0&#45;&gt;q9 -->
<g id="edge12" class="edge">
<title>q0-&gt;q9</title>
<path fill="none" stroke="black" d="M26.59,-221.76C31.76,-205.43 41.69,-183.38 59.39,-172.89 72.46,-165.15 87.99,-170.9 100.85,-179.24" data-darkreader-inline-stroke="" style="--darkreader-inline-stroke:#e8e6e3;"/>
<polygon fill="black" stroke="black" points="99.1,-182.29 109.26,-185.29 103.19,-176.61 99.1,-182.29" data-darkreader-inline-fill="" data-darkreader-inline-stroke="" style="--darkreader-inline-fill:#e8e6e3; --darkreader-inline-stroke:#e8e6e3;"/>
<text text-anchor="middle" x="72.22" y="-176.89" font-family="Helvetica,Arial,sans-serif" font-size="14.00">*</text>
</g>
<!-- q0&#45;&gt;q9 -->
<g id="edge13" class="edge">
<title>q0-&gt;q9</title>
<path fill="none" stroke="black" d="M23.44,-221.11C26.57,-198.8 35.25,-164.21 59.39,-147.89 68.84,-141.51 74.81,-142.87 85.06,-147.89 95.45,-152.99 104,-162.07 110.59,-171.33" data-darkreader-inline-stroke="" style="--darkreader-inline-stroke:#e8e6e3;"/>
<polygon fill="black" stroke="black" points="107.7,-173.31 116.09,-179.79 113.57,-169.5 107.7,-173.31" data-darkreader-inline-fill="" data-darkreader-inline-stroke="" style="--darkreader-inline-fill:#e8e6e3; --darkreader-inline-stroke:#e8e6e3;"/>
<text text-anchor="middle" x="72.22" y="-151.89" font-family="Helvetica,Arial,sans-serif" font-size="14.00">^</text>
</g>
<!-- q2 -->
<g id="node7" class="node">
<title>q2</title>
<ellipse fill="none" stroke="black" cx="127.75" cy="-86.69" rx="20.89" ry="20.89" data-darkreader-inline-stroke="" style="--darkreader-inline-stroke:#e8e6e3;"/>
<text text-anchor="middle" x="127.75" y="-82.49" font-family="Helvetica,Arial,sans-serif" font-size="14.00">q2</text>
</g>
<!-- q0&#45;&gt;q2 -->
<g id="edge1" class="edge">
<title>q0-&gt;q2</title>
<path fill="none" stroke="black" d="M23.43,-220.75C26.57,-194.84 35.31,-150.65 59.39,-121.89 69.48,-109.84 84.76,-101.39 98.21,-95.79" data-darkreader-inline-stroke="" style="--darkreader-inline-stroke:#e8e6e3;"/>
<polygon fill="black" stroke="black" points="99.5,-99.05 107.59,-92.21 97,-92.51 99.5,-99.05" data-darkreader-inline-fill="" data-darkreader-inline-stroke="" style="--darkreader-inline-fill:#e8e6e3; --darkreader-inline-stroke:#e8e6e3;"/>
<text text-anchor="middle" x="72.22" y="-125.89" font-family="Helvetica,Arial,sans-serif" font-size="14.00">digit</text>
</g>
<!-- q3 -->
<g id="node8" class="node">
<title>q3</title>
<ellipse fill="none" stroke="black" cx="127.75" cy="-27.69" rx="20.89" ry="20.89" data-darkreader-inline-stroke="" style="--darkreader-inline-stroke:#e8e6e3;"/>
<text text-anchor="middle" x="127.75" y="-23.49" font-family="Helvetica,Arial,sans-serif" font-size="14.00">q3</text>
</g>
<!-- q0&#45;&gt;q3 -->
<g id="edge3" class="edge">
<title>q0-&gt;q3</title>
<path fill="none" stroke="black" d="M22.35,-220.89C24.26,-188.72 31.57,-126.02 59.39,-81.89 69.6,-65.7 86.35,-52.19 100.6,-42.71" data-darkreader-inline-stroke="" style="--darkreader-inline-stroke:#e8e6e3;"/>
<polygon fill="black" stroke="black" points="102.49,-45.65 109.06,-37.34 98.74,-39.74 102.49,-45.65" data-darkreader-inline-fill="" data-darkreader-inline-stroke="" style="--darkreader-inline-fill:#e8e6e3; --darkreader-inline-stroke:#e8e6e3;"/>
<text text-anchor="middle" x="72.22" y="-86.89" font-family="Helvetica,Arial,sans-serif" font-size="14.00">e</text>
</g>
<!-- q2&#45;&gt;q7 -->
<g id="edge16" class="edge">
<title>q2-&gt;q7</title>
<path fill="none" stroke="black" d="M146.27,-96.54C163.66,-106.3 190.63,-121.46 211.34,-133.09" data-darkreader-inline-stroke="" style="--darkreader-inline-stroke:#e8e6e3;"/>
<polygon fill="black" stroke="black" points="209.64,-136.15 220.07,-137.99 213.07,-130.04 209.64,-136.15" data-darkreader-inline-fill="" data-darkreader-inline-stroke="" style="--darkreader-inline-fill:#e8e6e3; --darkreader-inline-stroke:#e8e6e3;"/>
<text text-anchor="middle" x="184.83" y="-128.89" font-family="Helvetica,Arial,sans-serif" font-size="14.00">other</text>
</g>
<!-- q2&#45;&gt;q2 -->
<g id="edge14" class="edge">
<title>q2-&gt;q2</title>
<path fill="none" stroke="black" d="M118.11,-105.41C116.31,-115.81 119.52,-125.39 127.75,-125.39 133.15,-125.39 136.39,-121.26 137.47,-115.49" data-darkreader-inline-stroke="" style="--darkreader-inline-stroke:#e8e6e3;"/>
<polygon fill="black" stroke="black" points="140.97,-115.38 137.39,-105.41 133.97,-115.43 140.97,-115.38" data-darkreader-inline-fill="" data-darkreader-inline-stroke="" style="--darkreader-inline-fill:#e8e6e3; --darkreader-inline-stroke:#e8e6e3;"/>
<text text-anchor="middle" x="127.75" y="-129.59" font-family="Helvetica,Arial,sans-serif" font-size="14.00">digit</text>
</g>
<!-- q6 -->
<g id="node10" class="node">
<title>q6</title>
<ellipse fill="none" stroke="black" cx="241.9" cy="-86.69" rx="20.89" ry="20.89" data-darkreader-inline-stroke="" style="--darkreader-inline-stroke:#e8e6e3;"/>
<text text-anchor="middle" x="241.9" y="-82.49" font-family="Helvetica,Arial,sans-serif" font-size="14.00">q6</text>
</g>
<!-- q2&#45;&gt;q6 -->
<g id="edge15" class="edge">
<title>q2-&gt;q6</title>
<path fill="none" stroke="black" d="M148.54,-86.69C165.81,-86.69 191.13,-86.69 210.89,-86.69" data-darkreader-inline-stroke="" style="--darkreader-inline-stroke:#e8e6e3;"/>
<polygon fill="black" stroke="black" points="210.93,-90.19 220.93,-86.69 210.93,-83.19 210.93,-90.19" data-darkreader-inline-fill="" data-darkreader-inline-stroke="" style="--darkreader-inline-fill:#e8e6e3; --darkreader-inline-stroke:#e8e6e3;"/>
<text text-anchor="middle" x="184.83" y="-90.89" font-family="Helvetica,Arial,sans-serif" font-size="14.00">,</text>
</g>
<!-- q4 -->
<g id="node9" class="node">
<title>q4</title>
<ellipse fill="none" stroke="black" cx="241.9" cy="-26.69" rx="20.89" ry="20.89" data-darkreader-inline-stroke="" style="--darkreader-inline-stroke:#e8e6e3;"/>
<text text-anchor="middle" x="241.9" y="-22.49" font-family="Helvetica,Arial,sans-serif" font-size="14.00">q4</text>
</g>
<!-- q3&#45;&gt;q4 -->
<g id="edge4" class="edge">
<title>q3-&gt;q4</title>
<path fill="none" stroke="black" d="M148.54,-27.52C165.81,-27.36 191.13,-27.14 210.89,-26.96" data-darkreader-inline-stroke="" style="--darkreader-inline-stroke:#e8e6e3;"/>
<polygon fill="black" stroke="black" points="210.96,-30.46 220.93,-26.87 210.9,-23.46 210.96,-30.46" data-darkreader-inline-fill="" data-darkreader-inline-stroke="" style="--darkreader-inline-fill:#e8e6e3; --darkreader-inline-stroke:#e8e6e3;"/>
<text text-anchor="middle" x="184.83" y="-31.89" font-family="Helvetica,Arial,sans-serif" font-size="14.00">x</text>
</g>
<!-- q4&#45;&gt;q5 -->
<g id="edge5" class="edge">
<title>q4-&gt;q5</title>
<path fill="none" stroke="black" d="M262.65,-26.33C278.04,-26.05 299.78,-25.65 317.96,-25.32" data-darkreader-inline-stroke="" style="--darkreader-inline-stroke:#e8e6e3;"/>
<polygon fill="black" stroke="black" points="318.24,-28.81 328.17,-25.13 318.11,-21.81 318.24,-28.81" data-darkreader-inline-fill="" data-darkreader-inline-stroke="" style="--darkreader-inline-fill:#e8e6e3; --darkreader-inline-stroke:#e8e6e3;"/>
<text text-anchor="middle" x="297.43" y="-30.89" font-family="Helvetica,Arial,sans-serif" font-size="14.00">p</text>
</g>
<!-- q8 -->
<g id="node11" class="node">
<title>q8</title>
<ellipse fill="none" stroke="black" cx="352.96" cy="-87.69" rx="20.89" ry="20.89" data-darkreader-inline-stroke="" style="--darkreader-inline-stroke:#e8e6e3;"/>
<text text-anchor="middle" x="352.96" y="-83.49" font-family="Helvetica,Arial,sans-serif" font-size="14.00">q8</text>
</g>
<!-- q6&#45;&gt;q8 -->
<g id="edge17" class="edge">
<title>q6-&gt;q8</title>
<path fill="none" stroke="black" d="M262.65,-86.87C279.15,-87.03 302.93,-87.24 321.81,-87.42" data-darkreader-inline-stroke="" style="--darkreader-inline-stroke:#e8e6e3;"/>
<polygon fill="black" stroke="black" points="321.96,-90.92 331.99,-87.51 322.02,-83.92 321.96,-90.92" data-darkreader-inline-fill="" data-darkreader-inline-stroke="" style="--darkreader-inline-fill:#e8e6e3; --darkreader-inline-stroke:#e8e6e3;"/>
<text text-anchor="middle" x="297.43" y="-90.89" font-family="Helvetica,Arial,sans-serif" font-size="14.00">digit</text>
</g>
<!-- q8&#45;&gt;q10 -->
<g id="edge19" class="edge">
<title>q8-&gt;q10</title>
<path fill="none" stroke="black" d="M373.8,-87.69C389.72,-87.69 412.54,-87.69 432.06,-87.69" data-darkreader-inline-stroke="" style="--darkreader-inline-stroke:#e8e6e3;"/>
<polygon fill="black" stroke="black" points="432.21,-91.19 442.21,-87.69 432.21,-84.19 432.21,-91.19" data-darkreader-inline-fill="" data-darkreader-inline-stroke="" style="--darkreader-inline-fill:#e8e6e3; --darkreader-inline-stroke:#e8e6e3;"/>
<text text-anchor="middle" x="410.03" y="-91.89" font-family="Helvetica,Arial,sans-serif" font-size="14.00">other</text>
</g>
<!-- q8&#45;&gt;q8 -->
<g id="edge18" class="edge">
<title>q8-&gt;q8</title>
<path fill="none" stroke="black" d="M343.32,-106.41C341.52,-116.81 344.73,-126.39 352.96,-126.39 358.36,-126.39 361.6,-122.26 362.68,-116.49" data-darkreader-inline-stroke="" style="--darkreader-inline-stroke:#e8e6e3;"/>
<polygon fill="black" stroke="black" points="366.18,-116.38 362.6,-106.41 359.18,-116.43 366.18,-116.38" data-darkreader-inline-fill="" data-darkreader-inline-stroke="" style="--darkreader-inline-fill:#e8e6e3; --darkreader-inline-stroke:#e8e6e3;"/>
<text text-anchor="middle" x="352.96" y="-130.59" font-family="Helvetica,Arial,sans-serif" font-size="14.00">digit</text>
</g>
</g>
</svg>